<?xml version="1.0" encoding="utf-8"?>
<!-- Generator: Adobe Illustrator 16.0.0, SVG Export Plug-In . SVG Version: 6.00 Build 0)  -->
<!DOCTYPE svg PUBLIC "-//W3C//DTD SVG 1.1//EN" "http://www.w3.org/Graphics/SVG/1.1/DTD/svg11.dtd">
<svg version="1.1" xmlns="http://www.w3.org/2000/svg" xmlns:xlink="http://www.w3.org/1999/xlink" x="0px" y="0px" width="380px"
	 height="320px" viewBox="0 0 380 320" enable-background="new 0 0 380 320" xml:space="preserve">
<g id="Layer_2">
	<g>
		<g>
			<path fill="none" stroke="#4870B6" stroke-width="7" stroke-miterlimit="10" d="M145.781,245.232l0.152-42.491l-4.584,0.054
				c0,0,0,6.214,0,20.614c0,14.397-19.649,14.493-19.649,0c0-6.983,0-10.667,0-27.813c0-17.142,15.799-19.646,15.799-19.646h73.993
				c0,0,15.798,2.506,15.798,19.646c0,17.146,0,20.83,0,27.813c0,14.493-19.649,14.397-19.649,0c0-14.4,0-20.614,0-20.614
				l-4.583-0.054l0.153,42.491H145.781z"/>
			<circle fill="none" stroke="#4870B6" stroke-width="7" stroke-miterlimit="10" cx="173.61" cy="143.974" r="22.997"/>
		</g>
		<polygon fill="none" stroke="#4870B6" stroke-width="7" stroke-miterlimit="10" points="55.17,266.254 299.845,266.254 
			299.845,98.528 152.559,98.528 132.119,77.397 55.17,77.397 		"/>
		<polyline fill="none" stroke="#4870B6" stroke-width="7" stroke-miterlimit="10" points="63.285,65.675 137.529,65.675 
			157.97,86.805 311.568,86.805 311.568,254.531 		"/>
		<polyline fill="none" stroke="#4870B6" stroke-width="7" stroke-miterlimit="10" points="75.909,53.59 142.939,53.59 
			163.38,74.72 324.192,74.72 324.192,242.445 		"/>
	</g>
</g>
<g id="Layer_1">
	<g>
		<title>background</title>
		<rect id="canvas_background" x="-1" y="-1" fill="none" width="382" height="322"/>
	</g>
</g>
</svg>
